<?xml version="1.0" standalone="no"?><!DOCTYPE svg PUBLIC "-//W3C//DTD SVG 1.1//EN" "http://www.w3.org/Graphics/SVG/1.1/DTD/svg11.dtd"><svg t="1519743235247" class="icon" style="" viewBox="0 0 1024 1024" version="1.1" xmlns="http://www.w3.org/2000/svg" p-id="16641" xmlns:xlink="http://www.w3.org/1999/xlink" width="200" height="200"><defs><style type="text/css"></style></defs><path d="M381.7 575.2H195.8c-44 0-79.7 35.7-79.7 79.7v185.9c0 44 35.7 79.7 79.7 79.7h185.9c44 0 79.7-35.7 79.7-79.7V654.9c-0.1-44-35.7-79.7-79.7-79.7z m0-424.9H195.8c-44 0-79.7 35.7-79.7 79.7v185.9c0 44 35.7 79.7 79.7 79.7h185.9c44 0 79.7-35.7 79.7-79.7V230c-0.1-44-35.7-79.7-79.7-79.7z m424.9 424.9H620.7c-44 0-79.7 35.7-79.7 79.7v185.9c0 44 35.7 79.7 79.7 79.7h185.9c44 0 79.7-35.7 79.7-79.7V654.9c0-44-35.7-79.7-79.7-79.7z m119.5-331.9L793.3 110.5c-27.7-34.4-78.5-34.4-106.2 0L554.3 243.3c-34.4 27.7-34.4 78.5 0 106.2l132.8 132.8c27.7 34.4 78.5 34.4 106.2 0l132.8-132.8c34.4-27.7 34.4-78.5 0-106.2z" p-id="16642" fill="#dbdbdb"></path></svg>