<?xml version="1.0" standalone="no"?><!DOCTYPE svg PUBLIC "-//W3C//DTD SVG 1.1//EN" "http://www.w3.org/Graphics/SVG/1.1/DTD/svg11.dtd"><svg t="1519742727381" class="icon" style="" viewBox="0 0 1024 1024" version="1.1" xmlns="http://www.w3.org/2000/svg" p-id="2738" xmlns:xlink="http://www.w3.org/1999/xlink" width="200" height="200"><defs><style type="text/css"></style></defs><path d="M657.142857 435.428571q0 32-22.571428 54.285715t-54.571429 22.285714H435.428571V358.285714h144.571429q32 0 54.571429 22.571429T657.142857 435.428571z m102.285714 0q0-74.285714-52.285714-126.857142T580 256H332.571429v512h102.857142v-153.714286h144.571429q74.285714 0 126.857143-52.285714t52.571428-126.571429z m264.571429 76.571429q0 104-40.571429 198.857143t-109.142857 163.428571-163.428571 109.142857-198.857143 40.571429-198.857143-40.571429-163.428571-109.142857-109.142857-163.428571T0 512t40.571429-198.857143 109.142857-163.428571T313.142857 40.571429 512 0t198.857143 40.571429 163.428571 109.142857 109.142857 163.428571 40.571429 198.857143z" p-id="2739" fill="#dbdbdb"></path></svg>