<?xml version="1.0" standalone="no"?><!DOCTYPE svg PUBLIC "-//W3C//DTD SVG 1.1//EN" "http://www.w3.org/Graphics/SVG/1.1/DTD/svg11.dtd"><svg t="1519742954103" class="icon" style="" viewBox="0 0 1097 1024" version="1.1" xmlns="http://www.w3.org/2000/svg" p-id="7130" xmlns:xlink="http://www.w3.org/1999/xlink" width="214.2578125" height="200"><defs><style type="text/css"></style></defs><path d="M634.843429 569.161143V566.857143l-13.714286-182.857143a19.858286 19.858286 0 0 0-19.419429-18.285714h-106.276571a19.785143 19.785143 0 0 0-19.419429 18.285714l-13.714285 182.857143v2.304c-0.585143 9.142857 8.009143 16.018286 16.566857 16.018286h139.446857c8.557714 0 17.152-6.838857 16.566857-16.018286z m433.737142 266.825143c0 16.566857-4.571429 41.728-26.294857 41.728h-402.285714a17.152 17.152 0 0 0 17.152-18.285715l-11.446857-146.285714a19.858286 19.858286 0 0 0-19.419429-18.285714h-155.428571a19.785143 19.785143 0 0 0-19.419429 18.285714l-11.446857 146.285714c-0.585143 10.276571 7.424 18.285714 17.152 18.285715h-402.285714c-21.723429 0-26.294857-25.161143-26.294857-41.728 0-22.857143 6.290286-45.714286 14.848-66.304L281.709714 173.129143c5.705143-14.299429 21.138286-26.843429 36.571429-26.843429H512a19.785143 19.785143 0 0 0-19.419429 18.285715l-8.557714 109.714285a16.822857 16.822857 0 0 0 17.152 18.285715h94.866286a16.822857 16.822857 0 0 0 17.152-18.285715l-8.557714-109.714285a19.858286 19.858286 0 0 0-19.419429-18.285715h193.718857c15.433143 0 30.866286 12.580571 36.571429 26.843429l238.299428 596.553143c8.557714 20.553143 14.848 43.446857 14.848 66.304z" fill="#dbdbdb" p-id="7131"></path></svg>