<?xml version="1.0" standalone="no"?><!DOCTYPE svg PUBLIC "-//W3C//DTD SVG 1.1//EN" "http://www.w3.org/Graphics/SVG/1.1/DTD/svg11.dtd"><svg t="1519743145169" class="icon" style="" viewBox="0 0 1024 1024" version="1.1" xmlns="http://www.w3.org/2000/svg" p-id="15024" xmlns:xlink="http://www.w3.org/1999/xlink" width="200" height="200"><defs><style type="text/css"></style></defs><path d="M463.437981 396.200624c97.120968 0 175.564551-74.708516 175.564551-168.094416 0-91.518367-78.443583-166.225859-175.564551-166.225859s-175.564551 74.708516-175.564551 166.225859C289.740964 321.492108 366.317013 396.200624 463.437981 396.200624z" p-id="15025" fill="#dbdbdb"></path><path d="M459.702913 612.855012c28.016077-46.692439 69.105914-85.914742 117.665887-110.194728 9.338692-5.603625 18.677385-9.338692 28.016077-13.07376-44.825928-28.016077-93.3859-42.957371-145.681964-42.957371-190.506868 0-345.526501 149.417031-345.526501 489.340931l324.981582 0c-20.544919-42.957371-31.751145-91.518367-31.751145-143.813407C407.40685 724.918297 427.951769 663.283542 459.702913 612.855012z" p-id="15026" fill="#dbdbdb"></path><path d="M893.01169 708.108446l-20.544919 0c-9.338692 0-18.677385-7.471159-22.412452-16.809851l-11.206226-28.016077c-3.735068-7.471159-1.867534-20.544919 3.735068-26.14752l14.941294-14.941294c7.471159-7.471159 7.471159-16.809851 0-24.279986l-24.279986-24.279986c-7.471159-7.471159-16.809851-7.471159-24.279986 0l-14.941294 14.941294c-7.471159 7.471159-18.677385 7.471159-26.14752 3.735068l-28.016077-11.206226c-9.338692-1.867534-16.809851-13.07376-16.809851-22.412452l0-20.544919c0-9.338692-7.471159-16.809851-16.809851-16.809851l-33.618679 0c-9.338692 0-16.809851 7.471159-16.809851 16.809851l0 20.544919c0 9.338692-7.471159 18.677385-16.809851 22.412452l-28.016077 11.206226c-7.471159 3.735068-20.544919 1.867534-26.14752-3.735068l-14.94027-14.941294c-7.471159-7.471159-16.809851-7.471159-24.279986 0l-24.279986 24.279986c-7.471159 7.471159-7.471159 16.809851 0 24.279986l14.941294 14.941294c7.471159 7.471159 7.471159 18.677385 3.735068 26.14752l-11.206226 28.016077c-1.867534 9.338692-13.07376 16.809851-22.412452 16.809851l-20.544919 0c-9.338692 0-16.809851 7.471159-16.809851 16.809851l0 33.618679c0 9.338692 7.471159 16.809851 16.809851 16.809851l20.544919 0c9.338692 0 18.677385 7.471159 22.412452 16.809851l11.206226 28.016077c3.735068 7.471159 1.867534 20.544919-3.735068 26.14752l-14.941294 14.941294c-7.471159 7.471159-7.471159 16.809851 0 24.279986l24.279986 24.279986c7.471159 7.471159 16.809851 7.471159 24.279986 0l14.941294-14.941294c7.471159-7.471159 18.677385-7.471159 26.14752-3.735068l28.016077 11.206226c9.338692 1.867534 16.809851 13.07376 16.809851 22.412452l0 20.544919c0 9.338692 7.471159 16.809851 16.809851 16.809851l33.618679 0c9.338692 0 16.809851-7.471159 16.809851-16.809851l0-24.279986c0-9.338692 7.471159-18.677385 16.809851-22.412452l28.016077-11.206226c7.471159-3.735068 20.544919-1.867534 26.14752 3.735068l14.941294 14.941294c7.471159 7.471159 16.809851 7.471159 24.279986 0l24.279986-24.279986c7.471159-7.471159 7.471159-16.809851 0-24.279986l-14.941294-14.941294c-7.471159-7.471159-7.471159-18.677385-3.735068-26.14752l11.206226-28.016077c1.867534-9.338692 13.07376-16.809851 22.412452-16.809851l20.544919 0c9.338692 0 16.809851-7.471159 16.809851-16.809851l0-33.618679C909.821541 715.579605 902.350382 708.108446 893.01169 708.108446zM691.299619 825.774333c-46.692439 0-84.047208-37.353746-84.047208-84.047208s37.353746-84.047208 84.047208-84.047208 84.047208 37.353746 84.047208 84.047208S737.992057 825.774333 691.299619 825.774333z" p-id="15027" fill="#dbdbdb"></path></svg>